<mxfile host="app.diagrams.net" modified="2024-06-21T03:23:02.004Z" agent="Mozilla/5.0 (Windows NT 10.0; Win64; x64) AppleWebKit/537.36 (KHTML, like Gecko) Chrome/126.0.0.0 Safari/537.36" version="24.5.5" etag="xVKww3oQl8BgJuLjIeYx" type="github">
  <diagram name="第 1 页" id="RrekxifdE_zJwMGW_7AD">
    <mxGraphModel>
      <root>
        <mxCell id="0" />
        <mxCell id="1" parent="0" />
      </root>
    </mxGraphModel>
  </diagram>
</mxfile>
